HIERARCHY
ROOT joint_Root
{
	OFFSET 0.0 0.0 0.0
	CHANNELS 6 Xposition Yposition Zposition Zrotation Xrotation Yrotation 
	JOINT Hips
	{
		OFFSET -0.726466 93.3139 -2.00062
		CHANNELS 6 Xposition Yposition Zposition Zrotation Xrotation Yrotation 
		JOINT Spine
		{
			OFFSET 15.7357 0.0 0.0
			CHANNELS 6 Xposition Yposition Zposition Zrotation Xrotation Yrotation 
			JOINT Chest
			{
				OFFSET 8.98455 -0.406207 0.0
				CHANNELS 6 Xposition Yposition Zposition Zrotation Xrotation Yrotation 
				JOINT Neck
				{
					OFFSET 16.3773 0.0 0.0
					CHANNELS 6 Xposition Yposition Zposition Zrotation Xrotation Yrotation 
					JOINT Head
					{
						OFFSET 6.45672 0.0 0.0
						CHANNELS 6 Xposition Yposition Zposition Zrotation Xrotation Yrotation 
						End Site
						{
							OFFSET 0.0 0.0 0.0
						}
					}
				}
				JOINT Shoulder_L
				{
					OFFSET 12.9942 -0.242716 4.98039
					CHANNELS 6 Xposition Yposition Zposition Zrotation Xrotation Yrotation 
					JOINT UpperArm_L
					{
						OFFSET 5.34809 0.0 0.0
						CHANNELS 6 Xposition Yposition Zposition Zrotation Xrotation Yrotation 
						JOINT LowerArm_L
						{
							OFFSET 24.3286 1.87007e-05 0.0
							CHANNELS 6 Xposition Yposition Zposition Zrotation Xrotation Yrotation 
							JOINT Hand_L
							{
								OFFSET 22.2916 0.0 0.0
								CHANNELS 6 Xposition Yposition Zposition Zrotation Xrotation Yrotation 
								End Site
								{
									OFFSET 0.0 0.0 0.0
								}
							}
						}
					}
				}
				JOINT Shoulder_R
				{
					OFFSET 12.9945 -0.242716 -4.98039
					CHANNELS 6 Xposition Yposition Zposition Zrotation Xrotation Yrotation 
					JOINT UpperArm_R
					{
						OFFSET -5.34813 0.0 0.0
						CHANNELS 6 Xposition Yposition Zposition Zrotation Xrotation Yrotation 
						JOINT LowerArm_R
						{
							OFFSET -24.3289 0.000322201 0.0
							CHANNELS 6 Xposition Yposition Zposition Zrotation Xrotation Yrotation 
							JOINT Hand_R
							{
								OFFSET -22.2915 -0.000108084 0.0
								CHANNELS 6 Xposition Yposition Zposition Zrotation Xrotation Yrotation 
								End Site
								{
									OFFSET 0.0 0.0 0.0
								}
							}
						}
					}
				}
			}
		}
		JOINT UpperLeg_L
		{
			OFFSET -2.19248 -6.46944 0.0
			CHANNELS 6 Xposition Yposition Zposition Zrotation Xrotation Yrotation 
			JOINT LowerLeg_L
			{
				OFFSET 39.0811 0.0 -1.23785e-05
				CHANNELS 6 Xposition Yposition Zposition Zrotation Xrotation Yrotation 
				JOINT Foot_L
				{
					OFFSET 40.9854 0.0 -1.26872e-05
					CHANNELS 6 Xposition Yposition Zposition Zrotation Xrotation Yrotation 
					JOINT Toes_L
					{
						OFFSET 11.7543 0.0 0.0
						CHANNELS 6 Xposition Yposition Zposition Zrotation Xrotation Yrotation 
						End Site
						{
							OFFSET 0.0 0.0 0.0
						}
					}
				}
			}
		}
		JOINT UpperLeg_R
		{
			OFFSET -2.19251 6.46944 0.0
			CHANNELS 6 Xposition Yposition Zposition Zrotation Xrotation Yrotation 
			JOINT LowerLeg_R
			{
				OFFSET -39.0811 -0.00228153 -0.0401928
				CHANNELS 6 Xposition Yposition Zposition Zrotation Xrotation Yrotation 
				JOINT Foot_R
				{
					OFFSET -40.9854 0.0 0.0
					CHANNELS 6 Xposition Yposition Zposition Zrotation Xrotation Yrotation 
					JOINT Toes_R
					{
						OFFSET -11.7543 0.0 0.0
						CHANNELS 6 Xposition Yposition Zposition Zrotation Xrotation Yrotation 
						End Site
						{
							OFFSET 0.0 0.0 0.0
						}
					}
				}
			}
		}
	}
}
MOTION
Frames:	5
Frame Time:	0.0333333
0.000000 0.000000 0.000000 0.000000 0.000000 -0.000000 -0.980196 92.189900 -1.659850 87.622700 -0.647373 1.322440 15.735700 0.000005 -0.000001 87.735800 86.370600 -87.490900 8.984550 -0.406207 -0.000000 -0.512121 -0.304412 0.488209 16.377300 -0.000001 -0.000001 1.368760 -2.178370 -0.304123 6.456720 -0.000001 -0.000000 -0.938200 -1.836980 4.710450 12.994200 -0.242716 4.980390 -89.645000 -0.981056 -70.103000 5.348090 -0.000007 -0.000001 -67.925200 38.032600 -12.564900 24.328600 0.000019 0.000005 3.798760 8.235310 -24.869600 22.291600 -0.000001 0.000005 5.607200 5.565880 -9.479020 12.994500 -0.242716 -4.980390 87.945200 5.391920 -69.102800 -5.348130 -0.000001 -0.000004 -64.819600 39.262100 -11.543300 -24.328900 0.000322 -0.000009 2.922570 7.064620 -22.548200 -22.291500 -0.000108 -0.000004 5.703840 5.528180 -7.714090 -2.192480 -6.469440 -0.000000 -168.869000 -16.241600 -4.528830 39.081100 -0.000007 -0.000012 -0.168358 0.455216 20.296700 40.985400 -0.000006 -0.000013 -6.789460 2.124970 -62.391700 11.754300 -0.000000 0.000003 -0.000114 -0.001149 -16.621500 -2.192510 6.469440 -0.000001 175.069000 20.165500 177.603000 -39.081100 -0.002282 -0.040193 -0.030414 0.103697 18.022700 -40.985400 0.000008 0.000006 -3.433130 2.693800 -62.338600 -11.754300 -0.000006 -0.000006 -0.005359 -0.064895 -19.213800
0.000000 0.000000 0.000000 0.000000 0.000000 -0.000000 -0.971707 92.200400 -1.651030 87.612200 -0.671621 1.271460 15.735700 0.000005 -0.000001 88.200000 86.311200 -87.909500 8.984550 -0.406207 -0.000000 -0.391281 -0.252367 0.579942 16.377300 -0.000001 -0.000001 1.069320 -2.156400 -0.218829 6.456720 -0.000001 -0.000000 -1.199360 -2.018580 4.883080 12.994200 -0.242716 4.980390 -89.676900 -0.885267 -69.945500 5.348090 -0.000007 -0.000001 -66.992900 37.499200 -12.894300 24.328600 0.000019 0.000005 4.302580 9.002380 -25.678100 22.291600 -0.000001 0.000005 5.666340 5.572240 -9.803290 12.994500 -0.242716 -4.980390 88.070400 5.072780 -69.141900 -5.348130 -0.000001 -0.000004 -62.745700 43.038600 -11.145500 -24.328900 0.000322 -0.000009 3.826660 7.416010 -27.397100 -22.291500 -0.000108 -0.000004 6.010050 5.546650 -8.549120 -2.192480 -6.469440 -0.000000 -168.884000 -16.270700 -4.549730 39.081100 -0.000007 -0.000012 -0.166694 0.452120 20.238800 40.985400 -0.000006 -0.000013 -6.784730 2.095990 -62.363700 11.754300 -0.000000 0.000003 -0.000108 -0.001095 -16.619500 -2.192510 6.469440 -0.000001 175.109000 20.105100 177.570000 -39.081100 -0.002282 -0.040193 -0.027344 0.094598 17.962800 -40.985400 0.000008 0.000006 -3.291620 2.702760 -62.319300 -11.754300 -0.000006 -0.000006 -0.005249 -0.063853 -19.171300
0.000000 0.000000 0.000000 0.000000 0.000000 -0.000000 -0.971119 92.209300 -1.661790 87.601300 -0.611346 1.192560 15.735700 0.000005 -0.000001 88.398200 86.273300 -88.058500 8.984550 -0.406207 -0.000000 -0.314686 -0.232249 0.678278 16.377300 -0.000001 -0.000001 0.822363 -2.186990 -0.130682 6.456720 -0.000001 -0.000000 -1.557570 -2.150780 5.194760 12.994200 -0.242716 4.980390 -89.680400 -0.868492 -69.793300 5.348090 -0.000007 -0.000001 -65.287900 36.932900 -13.568700 24.328600 0.000019 0.000005 4.731990 9.511180 -26.608300 22.291600 -0.000001 0.000005 5.843590 5.576560 -10.028700 12.994500 -0.242716 -4.980390 88.203100 4.707480 -69.079300 -5.348130 -0.000001 -0.000004 -60.352600 46.707800 -10.124300 -24.328900 0.000322 -0.000009 5.059470 7.435870 -34.375600 -22.291500 -0.000108 -0.000004 5.577860 5.571850 -9.795610 -2.192480 -6.469440 -0.000000 -168.890000 -16.218000 -4.608310 39.081100 -0.000007 -0.000012 -0.166720 0.454076 20.161600 40.985400 -0.000006 -0.000013 -6.788140 2.135500 -62.320000 11.754300 -0.000000 0.000003 -0.000105 -0.001071 -16.618600 -2.192510 6.469440 -0.000001 175.172000 20.162300 177.493000 -39.081100 -0.002282 -0.040193 -0.024168 0.084906 17.942200 -40.985400 0.000008 0.000006 -3.139640 2.645150 -62.317400 -11.754300 -0.000006 -0.000006 -0.005296 -0.064300 -19.189500
0.000000 0.000000 0.000000 0.000000 0.000000 -0.000000 -0.996516 92.214400 -1.672270 87.615400 -0.469469 1.144690 15.735700 0.000005 -0.000001 87.945000 86.213200 -87.531600 8.984550 -0.406207 -0.000000 -0.196176 -0.300233 0.825960 16.377300 -0.000001 -0.000001 0.596973 -2.194270 -0.047384 6.456720 -0.000001 -0.000000 -2.017030 -2.227030 5.483790 12.994200 -0.242716 4.980390 -89.695200 -0.819768 -69.605000 5.348090 -0.000007 -0.000001 -62.607700 36.122000 -14.780600 24.328600 0.000019 0.000005 5.354170 10.399700 -27.436400 22.291600 -0.000001 0.000005 5.924680 5.581650 -10.300400 12.994500 -0.242716 -4.980390 88.403000 4.143750 -68.901600 -5.348130 -0.000001 -0.000004 -57.797900 49.904700 -8.760870 -24.328900 0.000322 -0.000009 6.349950 6.912880 -42.762200 -22.291500 -0.000108 -0.000004 3.413890 5.601060 -11.437400 -2.192480 -6.469440 -0.000000 -168.924000 -16.149700 -4.685600 39.081100 -0.000007 -0.000012 -0.164236 0.448345 20.118800 40.985400 -0.000006 -0.000013 -6.788410 2.147500 -62.267300 11.754300 -0.000000 0.000003 -0.000102 -0.001048 -16.617800 -2.192510 6.469440 -0.000001 175.191000 20.226100 177.472000 -39.081100 -0.002282 -0.040193 -0.023701 0.083638 17.907700 -40.985400 0.000008 0.000006 -3.193100 2.559560 -62.308700 -11.754300 -0.000006 -0.000006 -0.005442 -0.065676 -19.245600
0.000000 0.000000 0.000000 0.000000 0.000000 -0.000000 -1.026780 92.224600 -1.668710 87.597000 -0.291201 1.112720 15.735700 0.000005 -0.000001 87.214000 86.153600 -86.704500 8.984550 -0.406207 -0.000000 -0.080260 -0.408699 1.017940 16.377300 -0.000001 -0.000001 0.377765 -2.237490 0.090516 6.456720 -0.000001 -0.000000 -2.442670 -2.196170 5.827790 12.994200 -0.242716 4.980390 -89.672100 -0.876386 -69.486300 5.348090 -0.000007 -0.000001 -59.445800 34.364300 -16.181700 24.328600 0.000019 0.000005 6.146060 11.679900 -28.008600 22.291600 -0.000001 0.000005 6.347190 5.586650 -10.574500 12.994500 -0.242716 -4.980390 88.682200 3.377010 -68.668300 -5.348130 -0.000001 -0.000004 -55.188300 52.798100 -7.247670 -24.328900 0.000322 -0.000009 7.121060 5.649810 -51.770300 -22.291500 -0.000108 -0.000004 0.465782 5.620960 -12.703500 -2.192480 -6.469440 -0.000000 -168.901000 -16.104300 -4.725770 39.081100 -0.000007 -0.000012 -0.162349 0.445151 20.037300 40.985400 -0.000006 -0.000013 -6.786840 2.256450 -62.191100 11.754300 -0.000000 0.000003 -0.000101 -0.001035 -16.617300 -2.192510 6.469440 -0.000001 175.277000 20.303700 177.465000 -39.081100 -0.002282 -0.040193 -0.018788 0.068464 17.900300 -40.985400 0.000008 0.000006 -2.961790 2.400970 -62.351300 -11.754300 -0.000006 -0.000006 -0.005431 -0.065579 -19.241600
